<?xml version="1.0" standalone="no"?>
<!DOCTYPE svg PUBLIC "-//W3C//DTD SVG 20010904//EN"
 "http://www.w3.org/TR/2001/REC-SVG-20010904/DTD/svg10.dtd">
<svg version="1.0" xmlns="http://www.w3.org/2000/svg"
 width="150.000000pt" height="150.000000pt" viewBox="0 0 150.000000 150.000000"
 preserveAspectRatio="xMidYMid meet">

<g transform="translate(0.000000,150.000000) scale(0.100000,-0.100000)"
fill="#000000" stroke="none">
<path d="M500 1425 c0 -20 -5 -25 -25 -25 -20 0 -25 -5 -25 -25 0 -20 -5 -25
-25 -25 -23 0 -25 -3 -25 -50 0 -47 2 -50 25 -50 20 0 25 -5 25 -25 0 -23 3
-25 50 -25 l50 0 0 -150 0 -150 -25 0 c-23 0 -25 -3 -25 -50 0 -47 -2 -50 -25
-50 -20 0 -25 -5 -25 -25 0 -20 -5 -25 -25 -25 -23 0 -25 -3 -25 -50 0 -47 -2
-50 -25 -50 l-25 0 0 -125 0 -125 25 0 c23 0 25 -3 25 -50 0 -47 2 -50 25 -50
20 0 25 -5 25 -25 0 -23 -3 -25 -50 -25 -47 0 -50 -2 -50 -25 0 -23 -3 -25
-50 -25 -47 0 -50 -2 -50 -25 0 -20 -5 -25 -25 -25 -23 0 -25 -3 -25 -50 0
-47 2 -50 25 -50 20 0 25 -5 25 -25 l0 -25 175 0 175 0 0 25 c0 20 5 25 25 25
23 0 25 3 25 50 l0 50 75 0 75 0 0 -50 c0 -47 2 -50 25 -50 20 0 25 -5 25 -25
l0 -25 175 0 175 0 0 25 c0 20 5 25 25 25 23 0 25 3 25 50 0 47 -2 50 -25 50
-20 0 -25 5 -25 25 0 23 -3 25 -50 25 -47 0 -50 2 -50 25 0 23 -3 25 -50 25
-47 0 -50 2 -50 25 0 20 5 25 25 25 23 0 25 3 25 50 0 47 2 50 25 50 l25 0 0
125 0 125 -25 0 c-23 0 -25 3 -25 50 0 47 -2 50 -25 50 -20 0 -25 5 -25 25 0
20 -5 25 -25 25 -23 0 -25 3 -25 50 0 47 -2 50 -25 50 l-25 0 0 150 0 150 50
0 c47 0 50 2 50 25 0 20 5 25 25 25 24 0 25 2 25 75 0 73 -1 75 -25 75 -20 0
-25 5 -25 25 0 20 -5 25 -25 25 -20 0 -25 -5 -25 -25 0 -20 -5 -25 -25 -25
-20 0 -25 5 -25 25 0 24 -2 25 -75 25 -73 0 -75 -1 -75 -25 0 -20 -5 -25 -25
-25 -20 0 -25 5 -25 25 l0 25 -100 0 -100 0 0 -25z m200 -50 c0 -20 5 -25 25
-25 20 0 25 5 25 25 0 24 2 25 75 25 73 0 75 -1 75 -25 0 -20 5 -25 25 -25 20
0 25 5 25 25 0 20 5 25 25 25 24 0 25 -2 25 -75 l0 -75 -75 0 -75 0 0 -150 0
-150 -125 0 -125 0 0 150 0 150 -75 0 -75 0 0 50 c0 47 2 50 25 50 20 0 25 5
25 25 l0 25 100 0 100 0 0 -25z m200 -500 l0 -25 -175 0 -175 0 0 25 0 25 175
0 175 0 0 -25z m50 -100 c0 -20 5 -25 25 -25 23 0 25 -3 25 -50 0 -47 2 -50
25 -50 l25 0 0 -125 0 -125 -25 0 c-23 0 -25 -3 -25 -50 0 -47 -2 -50 -25 -50
-20 0 -25 -5 -25 -25 0 -23 -3 -25 -50 -25 -47 0 -50 -2 -50 -25 l0 -25 -125
0 -125 0 0 25 c0 23 -3 25 -50 25 -47 0 -50 2 -50 25 0 20 -5 25 -25 25 -23 0
-25 3 -25 50 0 47 -2 50 -25 50 l-25 0 0 125 0 125 25 0 c23 0 25 3 25 50 0
47 2 50 25 50 20 0 25 5 25 25 l0 25 225 0 225 0 0 -25z m-450 -600 c0 -20 5
-25 25 -25 20 0 25 -5 25 -25 0 -20 -5 -25 -25 -25 -20 0 -25 5 -25 25 0 20
-5 25 -25 25 -20 0 -25 -5 -25 -25 0 -20 -5 -25 -25 -25 -20 0 -25 5 -25 25 0
20 5 25 25 25 20 0 25 5 25 25 0 20 5 25 25 25 20 0 25 -5 25 -25z m500 0 c0
-20 5 -25 25 -25 20 0 25 -5 25 -25 0 -20 -5 -25 -25 -25 -20 0 -25 5 -25 25
0 20 -5 25 -25 25 -20 0 -25 -5 -25 -25 0 -20 -5 -25 -25 -25 -20 0 -25 5 -25
25 0 20 5 25 25 25 20 0 25 5 25 25 0 20 5 25 25 25 20 0 25 -5 25 -25z"/>
<path d="M500 650 l0 -100 100 0 100 0 0 100 0 100 -100 0 -100 0 0 -100z
m150 0 c0 -47 -2 -50 -25 -50 -20 0 -25 5 -25 25 0 20 -5 25 -25 25 -20 0 -25
5 -25 25 0 23 3 25 50 25 l50 0 0 -50z"/>
<path d="M750 650 l0 -100 100 0 100 0 0 100 0 100 -100 0 -100 0 0 -100z
m150 0 c0 -47 -2 -50 -25 -50 -20 0 -25 5 -25 25 0 20 -5 25 -25 25 -20 0 -25
5 -25 25 0 23 3 25 50 25 l50 0 0 -50z"/>
<path d="M500 400 c0 -47 2 -50 25 -50 20 0 25 -5 25 -25 0 -20 5 -25 25 -25
20 0 25 -5 25 -25 l0 -25 125 0 125 0 0 25 c0 20 5 25 25 25 20 0 25 5 25 25
0 20 5 25 25 25 23 0 25 3 25 50 l0 50 -225 0 -225 0 0 -50z m350 -25 c0 -20
-5 -25 -25 -25 -20 0 -25 -5 -25 -25 0 -24 -2 -25 -75 -25 -73 0 -75 1 -75 25
0 20 -5 25 -25 25 -20 0 -25 5 -25 25 l0 25 125 0 125 0 0 -25z"/>
</g>
</svg>
